<svg width="115" height="21" viewBox="0 0 115 21" fill="none" xmlns="http://www.w3.org/2000/svg">
<path d="M7.38182 10.6556C7.38182 7.36785 8.71174 4.38551 10.8607 2.21653C11.2974 1.77703 11.0091 1.03216 10.3898 0.989352C9.00284 0.886611 7.53308 1.08068 6.03192 1.66288C3.3521 2.69885 1.26589 4.92204 0.44396 7.67607C-1.5338 14.3 3.37207 20.3474 9.69349 20.3474H10.3927C11.0234 20.3474 11.3516 19.5826 10.9064 19.1345C8.72887 16.9627 7.38182 13.9632 7.38182 10.6556Z" fill="#FEC66D"/>
<path d="M19.3833 5.00476C22.4998 5.00476 25.034 7.53904 25.034 10.6555C25.034 13.772 22.4998 16.3063 19.3833 16.3063C16.2668 16.3063 13.7325 13.772 13.7325 10.6555C13.7325 7.53904 16.2668 5.00476 19.3833 5.00476ZM19.3833 0.963623C14.0294 0.963623 9.69141 5.30157 9.69141 10.6555C9.69141 16.0095 14.0294 20.3474 19.3833 20.3474C24.7372 20.3474 29.0752 16.0095 29.0752 10.6555C29.0752 5.30157 24.7372 0.963623 19.3833 0.963623Z" fill="#FEC66D"/>
<path d="M32.2853 20.3474V0.963623H36.5776V20.3474H32.2853Z" fill="#000000"/>
<path d="M54.3821 13.5605L54.1053 7.46745V0.963379H58.4518V20.3472H54.7417L45.1041 7.9412L45.2696 14.3111V20.3472H40.8945V0.963379H44.6046L54.3821 13.5605Z" fill="#000000"/>
<path d="M74.237 5.64108C73.1582 4.50523 71.2746 4.00864 69.7506 4.00864C67.8385 4.00864 66.2888 4.81059 66.2888 6.14052C66.2888 7.9128 67.9783 8.24385 70.4698 8.46646C74.2912 8.79751 77.9185 10.2673 77.9185 14.7536C77.9185 19.0744 73.9316 20.9552 69.7506 20.9837C66.4001 21.0123 62.9098 19.7109 61.2773 16.9968L63.8516 14.3113C65.347 16.2234 67.8128 17.0539 69.7763 17.0539C72.0737 17.0539 73.6519 16.1406 73.6519 14.7565C73.6804 13.1212 72.3791 12.3763 69.7478 12.1537C65.6495 11.7656 61.9937 10.741 62.0508 6.17191C62.0793 2.31913 65.7352 0.27002 69.7221 0.27002C72.713 0.27002 74.9562 0.934981 76.951 3.26092L74.237 5.64108Z" fill="#000000"/>
<path d="M85.2017 14.8648V20.3472H80.8809V0.963379C83.9831 0.963379 86.9454 0.963379 90.0191 0.963379C94.9763 0.963379 97.4393 4.17688 97.4393 7.91266C97.4393 11.7883 94.9478 14.8077 90.0191 14.8619H85.2017V14.8648ZM85.2017 10.9036H90.0191C92.0967 10.9036 93.1213 9.54795 93.1213 7.99542C93.1213 6.44574 92.0682 5.05874 90.0191 5.05874H85.2017V10.9036Z" fill="#000000"/>
<path d="M115.001 20.3472H100.24C100.24 13.8945 100.24 7.41608 100.24 0.963379H114.613V4.92176H104.478V8.66038H114.033V12.4532H104.478V16.3574H115.001V20.3472Z" fill="#000000"/>
</svg>
